# xmcd CD database file
#
# Track frame offsets:
#	150
#	22450
#	46888
#	65638
#	90275
#	117438
#	137878
#	157650
#	181213
#	205765
#	228575
#	247163
#	270563
#
# Disc length: 3892 seconds
#
# Revision: 3
# Processed by: cddbd v1.5.2PL0 Copyright (c) Steve Scherf et al.
# Submitted via: CDex 1.70beta2
#
DISCID=b50f320d
DTITLE=吉田拓郎 - detente
DYEAR=1991
DGENRE=Folk
TTITLE0=放浪の唄
TTITLE1=たえなる時に
TTITLE2=シリアスな夜
TTITLE3=ロマンチックをおくって
TTITLE4=渚にて
TTITLE5=ひとりぼっちの夜空に
TTITLE6=地下鉄にのって
TTITLE7=青空
TTITLE8=男達の詩[Remix Version]
TTITLE9=友あり
TTITLE10=レールが鳴ると僕達は旅がしたくなる
TTITLE11=時には詩人のように
TTITLE12=裏窓[Bonus cut on CD]
EXTD=YEAR: 1991
EXTT0=
EXTT1=
EXTT2=
EXTT3=
EXTT4=
EXTT5=
EXTT6=
EXTT7=
EXTT8=
EXTT9=
EXTT10=
EXTT11=
EXTT12=
PLAYORDER=
